HIERARCHY
ROOT Pelvis
{
	OFFSET -0.217368 -24.078917 2.858379
	CHANNELS 6 Xposition Yposition Zposition Zrotation Yrotation Xrotation 
	JOINT Left_hip
	{
		OFFSET 5.858135 -8.228005 -1.766408
		CHANNELS 3 Zrotation Yrotation Xrotation
		JOINT Left_knee
		{
			OFFSET 4.345143 -38.646942 0.803700
			CHANNELS 3 Zrotation Yrotation Xrotation
			JOINT Left_ankle
			{
				OFFSET -1.479033 -42.687447 -3.742800
				CHANNELS 3 Zrotation Yrotation Xrotation
				JOINT Left_foot
				{
					OFFSET 4.105436 -6.028605 12.204244
					CHANNELS 3 Zrotation Yrotation Xrotation
					End Site
					{
						OFFSET 0.000000 0.000000 0.000000
					}
				}
			}
		}
	}
	JOINT Right_hip
	{
		OFFSET -6.030973 -9.051328 -1.354253
		CHANNELS 3 Zrotation Yrotation Xrotation
		JOINT Right_knee
		{
			OFFSET -4.325663 -38.368790 -0.484304
			CHANNELS 3 Zrotation Yrotation Xrotation
			JOINT Right_ankle
			{
				OFFSET 1.905555 -42.004566 -3.456167
				CHANNELS 3 Zrotation Yrotation Xrotation
				JOINT Right_foot
				{
					OFFSET -3.483987 -6.210554 13.032330
					CHANNELS 3 Zrotation Yrotation Xrotation
					End Site
					{
						OFFSET 0.000000 0.000000 0.000000
					}
				}
			}
		}
	}
	JOINT Spine1
	{
		OFFSET 0.443945 12.440353 -3.838522
		CHANNELS 3 Zrotation Yrotation Xrotation
		JOINT Spine2
		{
			OFFSET 0.448844 13.795640 2.682033
			CHANNELS 3 Zrotation Yrotation Xrotation
			JOINT Spine3
			{
				OFFSET -0.226460 5.603239 0.285504
				CHANNELS 3 Zrotation Yrotation Xrotation
				JOINT Neck
				{
					OFFSET -1.339018 21.163553 -3.346758
					CHANNELS 3 Zrotation Yrotation Xrotation
					JOINT Head
					{
						OFFSET 1.011321 8.893734 5.040987
						CHANNELS 3 Zrotation Yrotation Xrotation
						End Site
						{
							OFFSET 0.000000 0.000000 0.000000
						}
					}
				}
				JOINT Left_collar
				{
					OFFSET 7.170247 11.399971 -1.889817
					CHANNELS 3 Zrotation Yrotation Xrotation
					JOINT Left_shoulder
					{
						OFFSET 12.292140 4.520507 -1.904600
						CHANNELS 3 Zrotation Yrotation Xrotation
						JOINT Left_elbow
						{
							OFFSET 25.533188 -1.564902 -2.294648
							CHANNELS 3 Zrotation Yrotation Xrotation
							JOINT Left_wrist
							{
								OFFSET 26.570929 1.269810 -0.737473
								CHANNELS 3 Zrotation Yrotation Xrotation
								JOINT Left_palm
								{
									OFFSET 8.669054 -1.063602 -1.559429
									CHANNELS 3 Zrotation Yrotation Xrotation
									End Site
									{
										OFFSET 0.000000 0.000000 0.000000
									}
								}
							}
						}
					}
				}
				JOINT Right_collar
				{
					OFFSET -8.295364 11.247234 -2.370738
					CHANNELS 3 Zrotation Yrotation Xrotation
					JOINT Right_shoulder
					{
						OFFSET -11.322830 4.685326 -0.847207
						CHANNELS 3 Zrotation Yrotation Xrotation
						JOINT Right_elbow
						{
							OFFSET -26.012751 -1.436928 -3.126872
							CHANNELS 3 Zrotation Yrotation Xrotation
							JOINT Right_wrist
							{
								OFFSET -26.910841 0.679372 -0.602677
								CHANNELS 3 Zrotation Yrotation Xrotation
								JOINT Right_palm
								{
									OFFSET -8.875370 -0.865157 -1.010708
									CHANNELS 3 Zrotation Yrotation Xrotation
									End Site
									{
										OFFSET 0.000000 0.000000 0.000000
									}
								}
							}
						}
					}
				}
			}
		}
	}
}
MOTION
Frames: 5
Frame Time: 0.016667
0.473572 70.915802 0.603143 -4.385174 3.938909 14.529472 -7.229402 -0.083321 -1.097522 -2.825931 0.514229 -22.382167 31.606958 41.998938 30.154007 0.000000 0.000000 0.000000 -32.639102 -0.658496 -7.562366 55.792998 -31.025232 47.263984 -5.174312 -17.550263 51.677485 0.000000 0.000000 0.000000 2.976778 0.192638 -3.249838 3.876389 -1.272923 -8.723053 -2.273421 2.946770 3.757214 9.658718 -8.398371 3.215886 0.000000 0.000000 0.000000 -13.443606 -2.487046 -0.202439 -45.095623 -6.040056 -2.785949 -5.997112 -40.791987 3.754227 0.000000 0.000000 0.000000 0.000000 0.000000 0.000000 13.250524 -8.766203 -5.435486 44.845223 3.745380 -2.589573 -90.145796 57.852727 -53.660730 0.000000 0.000000 0.000000 0.000000 0.000000 0.000000 
0.473230 70.781898 0.609199 -5.140912 3.324601 15.161742 -6.876289 -0.018429 -0.666012 -2.555676 0.558271 -24.175874 33.009031 42.989375 31.003246 0.000000 0.000000 0.000000 -33.296664 -0.970586 -9.022553 54.745088 -32.519180 50.975724 -4.246935 -16.802982 52.593759 0.000000 0.000000 0.000000 3.807374 0.259793 -3.928518 3.460910 -1.137109 -8.292479 -1.204621 3.043610 3.512249 9.771528 -8.347518 2.574462 0.000000 0.000000 0.000000 -15.534059 -2.126205 -0.552127 -44.649823 -5.493138 -2.952898 -5.502414 -39.040312 3.403561 0.000000 0.000000 0.000000 0.000000 0.000000 0.000000 11.919737 -9.952065 -5.714448 45.911388 4.374015 -2.423616 -92.404031 58.151131 -55.810520 0.000000 0.000000 0.000000 0.000000 0.000000 0.000000 
0.464332 70.752266 0.693737 -5.569490 3.511108 15.304053 -6.555747 0.074012 -0.034217 -2.500079 0.576108 -25.183393 31.479858 41.783702 30.437768 0.000000 0.000000 0.000000 -33.659238 -1.310364 -10.638698 52.251464 -34.898863 57.998342 -1.811968 -14.617972 51.653918 0.000000 0.000000 0.000000 3.431168 0.294787 -4.562772 3.755232 -1.346859 -6.850855 -0.771297 2.633622 2.701066 10.228447 -8.648239 2.218753 0.000000 0.000000 0.000000 -16.462777 -2.035172 -0.678712 -44.536415 -3.912166 -3.501918 -7.138012 -40.608116 4.156186 0.000000 0.000000 0.000000 0.000000 0.000000 0.000000 12.799953 -9.481537 -5.678643 45.683768 3.491030 -2.729849 -95.173149 58.470869 -58.471169 0.000000 0.000000 0.000000 0.000000 0.000000 0.000000 
0.464056 70.882523 0.838244 -5.976635 5.367927 14.074944 -4.970020 0.308402 1.835474 -4.276809 0.378381 -25.332618 29.906625 41.592707 26.597281 0.000000 0.000000 0.000000 -32.810210 -0.984173 -9.242740 49.325744 -37.786634 66.651612 2.752532 -10.233046 49.875115 0.000000 0.000000 0.000000 3.779067 0.234608 -3.597396 4.940031 -1.822282 -6.982856 -1.507924 1.566219 3.268831 9.999381 -8.621338 2.930441 0.000000 0.000000 0.000000 -16.879494 -3.331440 -0.054415 -44.796867 -3.408107 -3.701130 -4.982814 -41.577558 3.450708 0.000000 0.000000 0.000000 0.000000 0.000000 0.000000 11.498632 -10.681298 -5.955541 46.532545 3.125336 -2.916169 -96.685635 60.534460 -61.975124 0.000000 0.000000 0.000000 0.000000 0.000000 0.000000 
0.424040 70.877274 1.022717 -5.382219 5.531223 14.632456 -5.227586 0.192081 0.937608 -4.817015 0.321444 -24.887908 27.975999 40.325816 24.558817 0.000000 0.000000 0.000000 -32.654040 -1.144157 -10.142886 46.496780 -41.133835 76.035609 4.565182 -8.478575 49.630194 0.000000 0.000000 0.000000 3.079825 0.190126 -3.181748 4.135163 -1.470474 -7.315513 -0.948102 0.673897 1.319603 9.859301 -9.081142 5.398959 0.000000 0.000000 0.000000 -16.466952 -3.276132 -0.051816 -43.814612 -1.391975 -4.308497 -9.226587 -41.736376 5.079052 0.000000 0.000000 0.000000 0.000000 0.000000 0.000000 11.357354 -9.251426 -5.284806 46.503099 0.394904 -3.915550 -99.163313 62.182943 -65.984919 0.000000 0.000000 0.000000 0.000000 0.000000 0.000000 
